<mxfile host="app.diagrams.net" agent="Mozilla/5.0 (Windows NT 10.0; Win64; x64) AppleWebKit/537.36 (KHTML, like Gecko) Chrome/134.0.0.0 Safari/537.36 Edg/134.0.0.0" version="27.1.6">
  <diagram name="第 1 页" id="mIOClfmxWSgUAmez8Kln">
    <mxGraphModel dx="1158" dy="854" grid="0" gridSize="10" guides="1" tooltips="1" connect="1" arrows="1" fold="1" page="1" pageScale="1" pageWidth="827" pageHeight="1169" math="0" shadow="0">
      <root>
        <mxCell id="0" />
        <mxCell id="1" parent="0" />
        <mxCell id="Dk0QGiiRSbjXpqtebNuv-2" value="用户" style="rounded=0;whiteSpace=wrap;html=1;" vertex="1" parent="1">
          <mxGeometry x="70" y="150" width="120" height="60" as="geometry" />
        </mxCell>
        <mxCell id="Dk0QGiiRSbjXpqtebNuv-4" value="拥有" style="rhombus;whiteSpace=wrap;html=1;" vertex="1" parent="1">
          <mxGeometry x="230" y="140" width="80" height="80" as="geometry" />
        </mxCell>
        <mxCell id="Dk0QGiiRSbjXpqtebNuv-5" value="包含" style="rhombus;whiteSpace=wrap;html=1;" vertex="1" parent="1">
          <mxGeometry x="374" y="240" width="80" height="80" as="geometry" />
        </mxCell>
        <mxCell id="Dk0QGiiRSbjXpqtebNuv-6" value="对话" style="rounded=0;whiteSpace=wrap;html=1;" vertex="1" parent="1">
          <mxGeometry x="353.5" y="150" width="120" height="60" as="geometry" />
        </mxCell>
        <mxCell id="Dk0QGiiRSbjXpqtebNuv-7" value="消息" style="rounded=0;whiteSpace=wrap;html=1;" vertex="1" parent="1">
          <mxGeometry x="210" y="250" width="120" height="60" as="geometry" />
        </mxCell>
        <mxCell id="Dk0QGiiRSbjXpqtebNuv-8" value="" style="endArrow=none;html=1;rounded=0;exitX=1;exitY=0.5;exitDx=0;exitDy=0;" edge="1" parent="1" source="Dk0QGiiRSbjXpqtebNuv-2" target="Dk0QGiiRSbjXpqtebNuv-4">
          <mxGeometry width="50" height="50" relative="1" as="geometry">
            <mxPoint x="90" y="410" as="sourcePoint" />
            <mxPoint x="140" y="360" as="targetPoint" />
          </mxGeometry>
        </mxCell>
        <mxCell id="Dk0QGiiRSbjXpqtebNuv-19" value="1" style="edgeLabel;html=1;align=center;verticalAlign=middle;resizable=0;points=[];" vertex="1" connectable="0" parent="Dk0QGiiRSbjXpqtebNuv-8">
          <mxGeometry y="-1" relative="1" as="geometry">
            <mxPoint as="offset" />
          </mxGeometry>
        </mxCell>
        <mxCell id="Dk0QGiiRSbjXpqtebNuv-9" value="属于" style="rhombus;whiteSpace=wrap;html=1;" vertex="1" parent="1">
          <mxGeometry x="90" y="240" width="80" height="80" as="geometry" />
        </mxCell>
        <mxCell id="Dk0QGiiRSbjXpqtebNuv-10" value="" style="endArrow=none;html=1;rounded=0;entryX=0;entryY=0.5;entryDx=0;entryDy=0;" edge="1" parent="1" target="Dk0QGiiRSbjXpqtebNuv-6">
          <mxGeometry width="50" height="50" relative="1" as="geometry">
            <mxPoint x="310" y="180" as="sourcePoint" />
            <mxPoint x="360" y="130" as="targetPoint" />
          </mxGeometry>
        </mxCell>
        <mxCell id="Dk0QGiiRSbjXpqtebNuv-20" value="n" style="edgeLabel;html=1;align=center;verticalAlign=middle;resizable=0;points=[];" vertex="1" connectable="0" parent="Dk0QGiiRSbjXpqtebNuv-10">
          <mxGeometry x="-0.0345" relative="1" as="geometry">
            <mxPoint as="offset" />
          </mxGeometry>
        </mxCell>
        <mxCell id="Dk0QGiiRSbjXpqtebNuv-11" value="" style="endArrow=none;html=1;rounded=0;exitX=1;exitY=0.5;exitDx=0;exitDy=0;entryX=0;entryY=0.5;entryDx=0;entryDy=0;" edge="1" parent="1" source="Dk0QGiiRSbjXpqtebNuv-9" target="Dk0QGiiRSbjXpqtebNuv-7">
          <mxGeometry width="50" height="50" relative="1" as="geometry">
            <mxPoint x="330" y="700" as="sourcePoint" />
            <mxPoint x="380" y="650" as="targetPoint" />
          </mxGeometry>
        </mxCell>
        <mxCell id="Dk0QGiiRSbjXpqtebNuv-21" value="1" style="edgeLabel;html=1;align=center;verticalAlign=middle;resizable=0;points=[];" vertex="1" connectable="0" parent="Dk0QGiiRSbjXpqtebNuv-11">
          <mxGeometry x="-0.15" y="2" relative="1" as="geometry">
            <mxPoint as="offset" />
          </mxGeometry>
        </mxCell>
        <mxCell id="Dk0QGiiRSbjXpqtebNuv-12" value="" style="endArrow=none;html=1;rounded=0;entryX=0.5;entryY=1;entryDx=0;entryDy=0;exitX=0.5;exitY=0;exitDx=0;exitDy=0;" edge="1" parent="1" source="Dk0QGiiRSbjXpqtebNuv-9" target="Dk0QGiiRSbjXpqtebNuv-2">
          <mxGeometry width="50" height="50" relative="1" as="geometry">
            <mxPoint x="105" y="450" as="sourcePoint" />
            <mxPoint x="140" y="390" as="targetPoint" />
          </mxGeometry>
        </mxCell>
        <mxCell id="Dk0QGiiRSbjXpqtebNuv-22" value="1" style="edgeLabel;html=1;align=center;verticalAlign=middle;resizable=0;points=[];" vertex="1" connectable="0" parent="Dk0QGiiRSbjXpqtebNuv-12">
          <mxGeometry x="0.4" y="-1" relative="1" as="geometry">
            <mxPoint as="offset" />
          </mxGeometry>
        </mxCell>
        <mxCell id="Dk0QGiiRSbjXpqtebNuv-13" value="" style="endArrow=none;html=1;rounded=0;entryX=0;entryY=0.5;entryDx=0;entryDy=0;exitX=1;exitY=0.5;exitDx=0;exitDy=0;" edge="1" parent="1" source="Dk0QGiiRSbjXpqtebNuv-7" target="Dk0QGiiRSbjXpqtebNuv-5">
          <mxGeometry width="50" height="50" relative="1" as="geometry">
            <mxPoint x="303.5" y="380" as="sourcePoint" />
            <mxPoint x="353.5" y="330" as="targetPoint" />
          </mxGeometry>
        </mxCell>
        <mxCell id="Dk0QGiiRSbjXpqtebNuv-24" value="n" style="edgeLabel;html=1;align=center;verticalAlign=middle;resizable=0;points=[];" vertex="1" connectable="0" parent="Dk0QGiiRSbjXpqtebNuv-13">
          <mxGeometry x="0.0909" y="-2" relative="1" as="geometry">
            <mxPoint as="offset" />
          </mxGeometry>
        </mxCell>
        <mxCell id="Dk0QGiiRSbjXpqtebNuv-14" value="1" style="endArrow=none;html=1;rounded=0;exitX=0.5;exitY=0;exitDx=0;exitDy=0;entryX=0.5;entryY=1;entryDx=0;entryDy=0;" edge="1" parent="1" source="Dk0QGiiRSbjXpqtebNuv-5" target="Dk0QGiiRSbjXpqtebNuv-6">
          <mxGeometry width="50" height="50" relative="1" as="geometry">
            <mxPoint x="370" y="260" as="sourcePoint" />
            <mxPoint x="420" y="210" as="targetPoint" />
          </mxGeometry>
        </mxCell>
        <mxCell id="Dk0QGiiRSbjXpqtebNuv-15" value="" style="endArrow=none;html=1;rounded=0;" edge="1" parent="1">
          <mxGeometry width="50" height="50" relative="1" as="geometry">
            <mxPoint x="490" y="680" as="sourcePoint" />
            <mxPoint x="540" y="630" as="targetPoint" />
          </mxGeometry>
        </mxCell>
        <mxCell id="Dk0QGiiRSbjXpqtebNuv-16" value="" style="endArrow=none;html=1;rounded=0;" edge="1" parent="1">
          <mxGeometry width="50" height="50" relative="1" as="geometry">
            <mxPoint x="470" y="720" as="sourcePoint" />
            <mxPoint x="520" y="670" as="targetPoint" />
          </mxGeometry>
        </mxCell>
        <mxCell id="Dk0QGiiRSbjXpqtebNuv-17" value="" style="endArrow=none;html=1;rounded=0;" edge="1" parent="1">
          <mxGeometry width="50" height="50" relative="1" as="geometry">
            <mxPoint x="430" y="750" as="sourcePoint" />
            <mxPoint x="480" y="700" as="targetPoint" />
          </mxGeometry>
        </mxCell>
        <mxCell id="Dk0QGiiRSbjXpqtebNuv-18" value="" style="endArrow=none;html=1;rounded=0;" edge="1" parent="1">
          <mxGeometry width="50" height="50" relative="1" as="geometry">
            <mxPoint x="300" y="770" as="sourcePoint" />
            <mxPoint x="350" y="720" as="targetPoint" />
          </mxGeometry>
        </mxCell>
      </root>
    </mxGraphModel>
  </diagram>
</mxfile>
